<svg xmlns="http://www.w3.org/2000/svg" xmlns:xlink="http://www.w3.org/1999/xlink" width="1134" zoomAndPan="magnify" viewBox="0 0 850.5 283.499996" height="378" preserveAspectRatio="xMidYMid meet" version="1.2"><defs><clipPath id="5c0be26605"><path d="M 14.648438 30.007812 L 248.003906 30.007812 L 248.003906 263.363281 L 14.648438 263.363281 Z M 14.648438 30.007812 "/></clipPath><clipPath id="e59a9d1de8"><path d="M 25.132812 30.007812 L 237.523438 30.007812 C 240.300781 30.007812 242.96875 31.113281 244.933594 33.078125 C 246.902344 35.042969 248.003906 37.710938 248.003906 40.492188 L 248.003906 252.882812 C 248.003906 255.660156 246.902344 258.328125 244.933594 260.292969 C 242.96875 262.261719 240.300781 263.363281 237.523438 263.363281 L 25.132812 263.363281 C 22.351562 263.363281 19.683594 262.261719 17.71875 260.292969 C 15.753906 258.328125 14.648438 255.660156 14.648438 252.882812 L 14.648438 40.492188 C 14.648438 37.710938 15.753906 35.042969 17.71875 33.078125 C 19.683594 31.113281 22.351562 30.007812 25.132812 30.007812 Z M 25.132812 30.007812 "/></clipPath><clipPath id="f75d226a5d"><path d="M 158.152344 30.230469 L 248 30.230469 L 248 119.859375 L 158.152344 119.859375 Z M 158.152344 30.230469 "/></clipPath></defs><g id="454c0d0506"><g clip-rule="nonzero" clip-path="url(#5c0be26605)"><g clip-rule="nonzero" clip-path="url(#e59a9d1de8)"><path style=" stroke:none;fill-rule:nonzero;fill:#06db9a;fill-opacity:1;" d="M 14.648438 30.007812 L 248.003906 30.007812 L 248.003906 263.363281 L 14.648438 263.363281 Z M 14.648438 30.007812 "/></g></g><g style="fill:#160c6b;fill-opacity:1;"><g transform="translate(82.423207, 217.478284)"><path style="stroke:none" d="M 46.171875 -24.515625 L 96.984375 -24.515625 L 96.984375 0 L 15.25 0 L 15.25 -154.1875 L 46.171875 -154.1875 Z M 46.171875 -24.515625 "/></g></g><path style=" stroke:none;fill-rule:nonzero;fill:#fffbf7;fill-opacity:1;" d="M 245.484375 117.84375 L 160.109375 117.84375 L 160.109375 32.46875 Z M 245.484375 117.84375 "/><g clip-rule="nonzero" clip-path="url(#f75d226a5d)"><path style=" stroke:none;fill-rule:nonzero;fill:#fffbf7;fill-opacity:1;" d="M 158.152344 32.46875 L 158.152344 117.84375 C 158.152344 119.242188 158.992188 120.082031 160.109375 120.082031 L 245.484375 120.082031 C 246.324219 120.082031 247.164062 119.523438 247.445312 118.683594 C 248.003906 118.125 247.726562 117.003906 247.164062 116.445312 L 161.789062 31.070312 C 161.230469 30.511719 160.390625 30.230469 159.550781 30.511719 C 158.710938 31.070312 158.152344 31.628906 158.152344 32.46875 Z M 162.351562 115.886719 L 162.351562 37.789062 L 240.445312 115.886719 Z M 162.351562 115.886719 "/></g><g style="fill:#fffbf7;fill-opacity:1;"><g transform="translate(257.115294, 179.751415)"><path style="stroke:none" d="M 28.71875 -15.25 L 60.328125 -15.25 L 60.328125 0 L 9.484375 0 L 9.484375 -95.90625 L 28.71875 -95.90625 Z M 28.71875 -15.25 "/></g></g><g style="fill:#fffbf7;fill-opacity:1;"><g transform="translate(313.443215, 179.751415)"><path style="stroke:none" d="M 28.4375 -95.90625 L 28.4375 -36.546875 C 28.4375 -30.046875 30.128906 -25.078125 33.515625 -21.640625 C 36.910156 -18.203125 41.675781 -16.484375 47.8125 -16.484375 C 54.039062 -16.484375 58.847656 -18.203125 62.234375 -21.640625 C 65.628906 -25.078125 67.328125 -30.046875 67.328125 -36.546875 L 67.328125 -95.90625 L 86.703125 -95.90625 L 86.703125 -36.6875 C 86.703125 -28.53125 84.9375 -21.632812 81.40625 -16 C 77.882812 -10.375 73.164062 -6.140625 67.25 -3.296875 C 61.34375 -0.453125 54.773438 0.96875 47.546875 0.96875 C 40.398438 0.96875 33.914062 -0.453125 28.09375 -3.296875 C 22.28125 -6.140625 17.675781 -10.375 14.28125 -16 C 10.894531 -21.632812 9.203125 -28.53125 9.203125 -36.6875 L 9.203125 -95.90625 Z M 28.4375 -95.90625 "/></g></g><g style="fill:#fffbf7;fill-opacity:1;"><g transform="translate(402.469726, 179.751415)"><path style="stroke:none" d="M 74.75 -95.90625 L 74.75 -80.375 L 49.1875 -80.375 L 49.1875 0 L 29.953125 0 L 29.953125 -80.375 L 4.390625 -80.375 L 4.390625 -95.90625 Z M 74.75 -95.90625 "/></g></g><g style="fill:#fffbf7;fill-opacity:1;"><g transform="translate(475.009546, 179.751415)"><path style="stroke:none" d="M 28.71875 -80.375 L 28.71875 -56.34375 L 61.015625 -56.34375 L 61.015625 -41.078125 L 28.71875 -41.078125 L 28.71875 -15.671875 L 65.125 -15.671875 L 65.125 0 L 9.484375 0 L 9.484375 -96.046875 L 65.125 -96.046875 L 65.125 -80.375 Z M 28.71875 -80.375 "/></g></g><g style="fill:#fffbf7;fill-opacity:1;"><g transform="translate(541.366866, 179.751415)"><path style="stroke:none" d="M 91.515625 0 L 72.28125 0 L 28.71875 -65.8125 L 28.71875 0 L 9.484375 0 L 9.484375 -96.046875 L 28.71875 -96.046875 L 72.28125 -30.09375 L 72.28125 -96.046875 L 91.515625 -96.046875 Z M 91.515625 0 "/></g></g><g style="fill:#fffbf7;fill-opacity:1;"><g transform="translate(635.614138, 179.751415)"><path style="stroke:none" d="M 43.015625 -95.90625 C 53.085938 -95.90625 61.945312 -93.9375 69.59375 -90 C 77.238281 -86.0625 83.144531 -80.453125 87.3125 -73.171875 C 91.488281 -65.890625 93.578125 -57.4375 93.578125 -47.8125 C 93.578125 -38.195312 91.488281 -29.789062 87.3125 -22.59375 C 83.144531 -15.40625 77.238281 -9.84375 69.59375 -5.90625 C 61.945312 -1.96875 53.085938 0 43.015625 0 L 9.484375 0 L 9.484375 -95.90625 Z M 42.328125 -16.34375 C 52.398438 -16.34375 60.179688 -19.09375 65.671875 -24.59375 C 71.171875 -30.09375 73.921875 -37.832031 73.921875 -47.8125 C 73.921875 -57.800781 71.171875 -65.613281 65.671875 -71.25 C 60.179688 -76.882812 52.398438 -79.703125 42.328125 -79.703125 L 28.71875 -79.703125 L 28.71875 -16.34375 Z M 42.328125 -16.34375 "/></g></g><g style="fill:#fffbf7;fill-opacity:1;"><g transform="translate(727.388409, 179.751415)"><path style="stroke:none" d="M 54 0.96875 C 45.019531 0.96875 36.773438 -1.132812 29.265625 -5.34375 C 21.753906 -9.5625 15.800781 -15.40625 11.40625 -22.875 C 7.007812 -30.34375 4.8125 -38.796875 4.8125 -48.234375 C 4.8125 -57.578125 7.007812 -65.976562 11.40625 -73.4375 C 15.800781 -80.90625 21.753906 -86.742188 29.265625 -90.953125 C 36.773438 -95.171875 45.019531 -97.28125 54 -97.28125 C 63.070312 -97.28125 71.335938 -95.171875 78.796875 -90.953125 C 86.265625 -86.742188 92.175781 -80.90625 96.53125 -73.4375 C 100.882812 -65.976562 103.0625 -57.578125 103.0625 -48.234375 C 103.0625 -38.796875 100.882812 -30.34375 96.53125 -22.875 C 92.175781 -15.40625 86.242188 -9.5625 78.734375 -5.34375 C 71.222656 -1.132812 62.976562 0.96875 54 0.96875 Z M 54 -16.21875 C 59.769531 -16.21875 64.851562 -17.519531 69.25 -20.125 C 73.644531 -22.738281 77.078125 -26.472656 79.546875 -31.328125 C 82.023438 -36.179688 83.265625 -41.816406 83.265625 -48.234375 C 83.265625 -54.640625 82.023438 -60.25 79.546875 -65.0625 C 77.078125 -69.875 73.644531 -73.5625 69.25 -76.125 C 64.851562 -78.6875 59.769531 -79.96875 54 -79.96875 C 48.226562 -79.96875 43.117188 -78.6875 38.671875 -76.125 C 34.234375 -73.5625 30.773438 -69.875 28.296875 -65.0625 C 25.828125 -60.25 24.59375 -54.640625 24.59375 -48.234375 C 24.59375 -41.816406 25.828125 -36.179688 28.296875 -31.328125 C 30.773438 -26.472656 34.234375 -22.738281 38.671875 -20.125 C 43.117188 -17.519531 48.226562 -16.21875 54 -16.21875 Z M 54 -16.21875 "/></g></g><g style="fill:#06db9a;fill-opacity:1;"><g transform="translate(265.787928, 225.929154)"><path style="stroke:none" d="M 15.0625 -12.6875 C 15.957031 -12.539062 16.773438 -12.171875 17.515625 -11.578125 C 18.253906 -10.992188 18.84375 -10.265625 19.28125 -9.390625 C 19.71875 -8.523438 19.9375 -7.597656 19.9375 -6.609375 C 19.9375 -5.359375 19.617188 -4.234375 18.984375 -3.234375 C 18.347656 -2.234375 17.421875 -1.441406 16.203125 -0.859375 C 14.992188 -0.285156 13.5625 0 11.90625 0 L 2.71875 0 L 2.71875 -24.640625 L 11.5625 -24.640625 C 13.226562 -24.640625 14.648438 -24.359375 15.828125 -23.796875 C 17.003906 -23.242188 17.890625 -22.492188 18.484375 -21.546875 C 19.078125 -20.609375 19.375 -19.550781 19.375 -18.375 C 19.375 -16.914062 18.976562 -15.707031 18.1875 -14.75 C 17.394531 -13.800781 16.351562 -13.113281 15.0625 -12.6875 Z M 5.9375 -14 L 11.34375 -14 C 12.851562 -14 14.019531 -14.347656 14.84375 -15.046875 C 15.664062 -15.753906 16.078125 -16.734375 16.078125 -17.984375 C 16.078125 -19.234375 15.664062 -20.210938 14.84375 -20.921875 C 14.019531 -21.628906 12.832031 -21.984375 11.28125 -21.984375 L 5.9375 -21.984375 Z M 11.625 -2.65625 C 13.226562 -2.65625 14.476562 -3.03125 15.375 -3.78125 C 16.269531 -4.53125 16.71875 -5.578125 16.71875 -6.921875 C 16.71875 -8.296875 16.242188 -9.375 15.296875 -10.15625 C 14.359375 -10.945312 13.097656 -11.34375 11.515625 -11.34375 L 5.9375 -11.34375 L 5.9375 -2.65625 Z M 11.625 -2.65625 "/></g></g><g style="fill:#06db9a;fill-opacity:1;"><g transform="translate(301.365752, 225.929154)"><path style="stroke:none" d="M 5.859375 -24.640625 L 5.859375 -9.046875 C 5.859375 -6.859375 6.394531 -5.234375 7.46875 -4.171875 C 8.539062 -3.109375 10.035156 -2.578125 11.953125 -2.578125 C 13.835938 -2.578125 15.3125 -3.109375 16.375 -4.171875 C 17.445312 -5.234375 17.984375 -6.859375 17.984375 -9.046875 L 17.984375 -24.640625 L 21.203125 -24.640625 L 21.203125 -9.078125 C 21.203125 -7.035156 20.789062 -5.3125 19.96875 -3.90625 C 19.144531 -2.5 18.03125 -1.453125 16.625 -0.765625 C 15.226562 -0.0859375 13.65625 0.25 11.90625 0.25 C 10.164062 0.25 8.59375 -0.0859375 7.1875 -0.765625 C 5.789062 -1.453125 4.6875 -2.5 3.875 -3.90625 C 3.0625 -5.3125 2.65625 -7.035156 2.65625 -9.078125 L 2.65625 -24.640625 Z M 5.859375 -24.640625 "/></g></g><g style="fill:#06db9a;fill-opacity:1;"><g transform="translate(339.13308, 225.929154)"><path style="stroke:none" d="M 10.53125 0.25 C 8.90625 0.25 7.445312 -0.0351562 6.15625 -0.609375 C 4.875 -1.191406 3.867188 -1.992188 3.140625 -3.015625 C 2.410156 -4.046875 2.035156 -5.234375 2.015625 -6.578125 L 5.4375 -6.578125 C 5.5625 -5.421875 6.039062 -4.445312 6.875 -3.65625 C 7.707031 -2.863281 8.925781 -2.46875 10.53125 -2.46875 C 12.0625 -2.46875 13.269531 -2.847656 14.15625 -3.609375 C 15.039062 -4.378906 15.484375 -5.367188 15.484375 -6.578125 C 15.484375 -7.515625 15.222656 -8.273438 14.703125 -8.859375 C 14.179688 -9.453125 13.53125 -9.898438 12.75 -10.203125 C 11.976562 -10.515625 10.929688 -10.847656 9.609375 -11.203125 C 7.984375 -11.628906 6.679688 -12.050781 5.703125 -12.46875 C 4.722656 -12.894531 3.882812 -13.5625 3.1875 -14.46875 C 2.5 -15.375 2.15625 -16.59375 2.15625 -18.125 C 2.15625 -19.46875 2.492188 -20.65625 3.171875 -21.6875 C 3.859375 -22.726562 4.820312 -23.53125 6.0625 -24.09375 C 7.300781 -24.664062 8.722656 -24.953125 10.328125 -24.953125 C 12.628906 -24.953125 14.515625 -24.375 15.984375 -23.21875 C 17.460938 -22.0625 18.296875 -20.53125 18.484375 -18.625 L 14.953125 -18.625 C 14.835938 -19.570312 14.34375 -20.40625 13.46875 -21.125 C 12.59375 -21.84375 11.4375 -22.203125 10 -22.203125 C 8.65625 -22.203125 7.554688 -21.851562 6.703125 -21.15625 C 5.859375 -20.457031 5.4375 -19.484375 5.4375 -18.234375 C 5.4375 -17.335938 5.691406 -16.609375 6.203125 -16.046875 C 6.710938 -15.484375 7.335938 -15.050781 8.078125 -14.75 C 8.816406 -14.457031 9.859375 -14.125 11.203125 -13.75 C 12.828125 -13.300781 14.132812 -12.859375 15.125 -12.421875 C 16.113281 -11.984375 16.960938 -11.3125 17.671875 -10.40625 C 18.378906 -9.5 18.734375 -8.269531 18.734375 -6.71875 C 18.734375 -5.507812 18.414062 -4.375 17.78125 -3.3125 C 17.144531 -2.257812 16.203125 -1.398438 14.953125 -0.734375 C 13.703125 -0.078125 12.226562 0.25 10.53125 0.25 Z M 10.53125 0.25 "/></g></g><g style="fill:#06db9a;fill-opacity:1;"><g transform="translate(373.792702, 225.929154)"><path style="stroke:none" d="M 5.9375 -24.640625 L 5.9375 0 L 2.71875 0 L 2.71875 -24.640625 Z M 5.9375 -24.640625 "/></g></g><g style="fill:#06db9a;fill-opacity:1;"><g transform="translate(396.409985, 225.929154)"><path style="stroke:none" d="M 22.09375 0 L 18.875 0 L 5.9375 -19.609375 L 5.9375 0 L 2.71875 0 L 2.71875 -24.671875 L 5.9375 -24.671875 L 18.875 -5.09375 L 18.875 -24.671875 L 22.09375 -24.671875 Z M 22.09375 0 "/></g></g><g style="fill:#06db9a;fill-opacity:1;"><g transform="translate(435.166129, 225.929154)"><path style="stroke:none" d="M 5.9375 -22.015625 L 5.9375 -13.78125 L 14.921875 -13.78125 L 14.921875 -11.140625 L 5.9375 -11.140625 L 5.9375 -2.65625 L 15.96875 -2.65625 L 15.96875 0 L 2.71875 0 L 2.71875 -24.671875 L 15.96875 -24.671875 L 15.96875 -22.015625 Z M 5.9375 -22.015625 "/></g></g><g style="fill:#06db9a;fill-opacity:1;"><g transform="translate(467.212468, 225.929154)"><path style="stroke:none" d="M 10.53125 0.25 C 8.90625 0.25 7.445312 -0.0351562 6.15625 -0.609375 C 4.875 -1.191406 3.867188 -1.992188 3.140625 -3.015625 C 2.410156 -4.046875 2.035156 -5.234375 2.015625 -6.578125 L 5.4375 -6.578125 C 5.5625 -5.421875 6.039062 -4.445312 6.875 -3.65625 C 7.707031 -2.863281 8.925781 -2.46875 10.53125 -2.46875 C 12.0625 -2.46875 13.269531 -2.847656 14.15625 -3.609375 C 15.039062 -4.378906 15.484375 -5.367188 15.484375 -6.578125 C 15.484375 -7.515625 15.222656 -8.273438 14.703125 -8.859375 C 14.179688 -9.453125 13.53125 -9.898438 12.75 -10.203125 C 11.976562 -10.515625 10.929688 -10.847656 9.609375 -11.203125 C 7.984375 -11.628906 6.679688 -12.050781 5.703125 -12.46875 C 4.722656 -12.894531 3.882812 -13.5625 3.1875 -14.46875 C 2.5 -15.375 2.15625 -16.59375 2.15625 -18.125 C 2.15625 -19.46875 2.492188 -20.65625 3.171875 -21.6875 C 3.859375 -22.726562 4.820312 -23.53125 6.0625 -24.09375 C 7.300781 -24.664062 8.722656 -24.953125 10.328125 -24.953125 C 12.628906 -24.953125 14.515625 -24.375 15.984375 -23.21875 C 17.460938 -22.0625 18.296875 -20.53125 18.484375 -18.625 L 14.953125 -18.625 C 14.835938 -19.570312 14.34375 -20.40625 13.46875 -21.125 C 12.59375 -21.84375 11.4375 -22.203125 10 -22.203125 C 8.65625 -22.203125 7.554688 -21.851562 6.703125 -21.15625 C 5.859375 -20.457031 5.4375 -19.484375 5.4375 -18.234375 C 5.4375 -17.335938 5.691406 -16.609375 6.203125 -16.046875 C 6.710938 -15.484375 7.335938 -15.050781 8.078125 -14.75 C 8.816406 -14.457031 9.859375 -14.125 11.203125 -13.75 C 12.828125 -13.300781 14.132812 -12.859375 15.125 -12.421875 C 16.113281 -11.984375 16.960938 -11.3125 17.671875 -10.40625 C 18.378906 -9.5 18.734375 -8.269531 18.734375 -6.71875 C 18.734375 -5.507812 18.414062 -4.375 17.78125 -3.3125 C 17.144531 -2.257812 16.203125 -1.398438 14.953125 -0.734375 C 13.703125 -0.078125 12.226562 0.25 10.53125 0.25 Z M 10.53125 0.25 "/></g></g><g style="fill:#06db9a;fill-opacity:1;"><g transform="translate(501.87209, 225.929154)"><path style="stroke:none" d="M 10.53125 0.25 C 8.90625 0.25 7.445312 -0.0351562 6.15625 -0.609375 C 4.875 -1.191406 3.867188 -1.992188 3.140625 -3.015625 C 2.410156 -4.046875 2.035156 -5.234375 2.015625 -6.578125 L 5.4375 -6.578125 C 5.5625 -5.421875 6.039062 -4.445312 6.875 -3.65625 C 7.707031 -2.863281 8.925781 -2.46875 10.53125 -2.46875 C 12.0625 -2.46875 13.269531 -2.847656 14.15625 -3.609375 C 15.039062 -4.378906 15.484375 -5.367188 15.484375 -6.578125 C 15.484375 -7.515625 15.222656 -8.273438 14.703125 -8.859375 C 14.179688 -9.453125 13.53125 -9.898438 12.75 -10.203125 C 11.976562 -10.515625 10.929688 -10.847656 9.609375 -11.203125 C 7.984375 -11.628906 6.679688 -12.050781 5.703125 -12.46875 C 4.722656 -12.894531 3.882812 -13.5625 3.1875 -14.46875 C 2.5 -15.375 2.15625 -16.59375 2.15625 -18.125 C 2.15625 -19.46875 2.492188 -20.65625 3.171875 -21.6875 C 3.859375 -22.726562 4.820312 -23.53125 6.0625 -24.09375 C 7.300781 -24.664062 8.722656 -24.953125 10.328125 -24.953125 C 12.628906 -24.953125 14.515625 -24.375 15.984375 -23.21875 C 17.460938 -22.0625 18.296875 -20.53125 18.484375 -18.625 L 14.953125 -18.625 C 14.835938 -19.570312 14.34375 -20.40625 13.46875 -21.125 C 12.59375 -21.84375 11.4375 -22.203125 10 -22.203125 C 8.65625 -22.203125 7.554688 -21.851562 6.703125 -21.15625 C 5.859375 -20.457031 5.4375 -19.484375 5.4375 -18.234375 C 5.4375 -17.335938 5.691406 -16.609375 6.203125 -16.046875 C 6.710938 -15.484375 7.335938 -15.050781 8.078125 -14.75 C 8.816406 -14.457031 9.859375 -14.125 11.203125 -13.75 C 12.828125 -13.300781 14.132812 -12.859375 15.125 -12.421875 C 16.113281 -11.984375 16.960938 -11.3125 17.671875 -10.40625 C 18.378906 -9.5 18.734375 -8.269531 18.734375 -6.71875 C 18.734375 -5.507812 18.414062 -4.375 17.78125 -3.3125 C 17.144531 -2.257812 16.203125 -1.398438 14.953125 -0.734375 C 13.703125 -0.078125 12.226562 0.25 10.53125 0.25 Z M 10.53125 0.25 "/></g></g><g style="fill:#06db9a;fill-opacity:1;"><g transform="translate(536.531712, 225.929154)"><path style="stroke:none" d=""/></g></g><g style="fill:#06db9a;fill-opacity:1;"><g transform="translate(559.890582, 225.929154)"><path style="stroke:none" d="M 10.53125 0.25 C 8.90625 0.25 7.445312 -0.0351562 6.15625 -0.609375 C 4.875 -1.191406 3.867188 -1.992188 3.140625 -3.015625 C 2.410156 -4.046875 2.035156 -5.234375 2.015625 -6.578125 L 5.4375 -6.578125 C 5.5625 -5.421875 6.039062 -4.445312 6.875 -3.65625 C 7.707031 -2.863281 8.925781 -2.46875 10.53125 -2.46875 C 12.0625 -2.46875 13.269531 -2.847656 14.15625 -3.609375 C 15.039062 -4.378906 15.484375 -5.367188 15.484375 -6.578125 C 15.484375 -7.515625 15.222656 -8.273438 14.703125 -8.859375 C 14.179688 -9.453125 13.53125 -9.898438 12.75 -10.203125 C 11.976562 -10.515625 10.929688 -10.847656 9.609375 -11.203125 C 7.984375 -11.628906 6.679688 -12.050781 5.703125 -12.46875 C 4.722656 -12.894531 3.882812 -13.5625 3.1875 -14.46875 C 2.5 -15.375 2.15625 -16.59375 2.15625 -18.125 C 2.15625 -19.46875 2.492188 -20.65625 3.171875 -21.6875 C 3.859375 -22.726562 4.820312 -23.53125 6.0625 -24.09375 C 7.300781 -24.664062 8.722656 -24.953125 10.328125 -24.953125 C 12.628906 -24.953125 14.515625 -24.375 15.984375 -23.21875 C 17.460938 -22.0625 18.296875 -20.53125 18.484375 -18.625 L 14.953125 -18.625 C 14.835938 -19.570312 14.34375 -20.40625 13.46875 -21.125 C 12.59375 -21.84375 11.4375 -22.203125 10 -22.203125 C 8.65625 -22.203125 7.554688 -21.851562 6.703125 -21.15625 C 5.859375 -20.457031 5.4375 -19.484375 5.4375 -18.234375 C 5.4375 -17.335938 5.691406 -16.609375 6.203125 -16.046875 C 6.710938 -15.484375 7.335938 -15.050781 8.078125 -14.75 C 8.816406 -14.457031 9.859375 -14.125 11.203125 -13.75 C 12.828125 -13.300781 14.132812 -12.859375 15.125 -12.421875 C 16.113281 -11.984375 16.960938 -11.3125 17.671875 -10.40625 C 18.378906 -9.5 18.734375 -8.269531 18.734375 -6.71875 C 18.734375 -5.507812 18.414062 -4.375 17.78125 -3.3125 C 17.144531 -2.257812 16.203125 -1.398438 14.953125 -0.734375 C 13.703125 -0.078125 12.226562 0.25 10.53125 0.25 Z M 10.53125 0.25 "/></g></g><g style="fill:#06db9a;fill-opacity:1;"><g transform="translate(594.550204, 225.929154)"><path style="stroke:none" d="M 5.859375 -24.640625 L 5.859375 -9.046875 C 5.859375 -6.859375 6.394531 -5.234375 7.46875 -4.171875 C 8.539062 -3.109375 10.035156 -2.578125 11.953125 -2.578125 C 13.835938 -2.578125 15.3125 -3.109375 16.375 -4.171875 C 17.445312 -5.234375 17.984375 -6.859375 17.984375 -9.046875 L 17.984375 -24.640625 L 21.203125 -24.640625 L 21.203125 -9.078125 C 21.203125 -7.035156 20.789062 -5.3125 19.96875 -3.90625 C 19.144531 -2.5 18.03125 -1.453125 16.625 -0.765625 C 15.226562 -0.0859375 13.65625 0.25 11.90625 0.25 C 10.164062 0.25 8.59375 -0.0859375 7.1875 -0.765625 C 5.789062 -1.453125 4.6875 -2.5 3.875 -3.90625 C 3.0625 -5.3125 2.65625 -7.035156 2.65625 -9.078125 L 2.65625 -24.640625 Z M 5.859375 -24.640625 "/></g></g><g style="fill:#06db9a;fill-opacity:1;"><g transform="translate(632.317532, 225.929154)"><path style="stroke:none" d="M 19.1875 -17.421875 C 19.1875 -15.367188 18.484375 -13.664062 17.078125 -12.3125 C 15.679688 -10.957031 13.546875 -10.28125 10.671875 -10.28125 L 5.9375 -10.28125 L 5.9375 0 L 2.71875 0 L 2.71875 -24.640625 L 10.671875 -24.640625 C 13.453125 -24.640625 15.566406 -23.96875 17.015625 -22.625 C 18.460938 -21.28125 19.1875 -19.546875 19.1875 -17.421875 Z M 10.671875 -12.9375 C 12.460938 -12.9375 13.78125 -13.320312 14.625 -14.09375 C 15.476562 -14.875 15.90625 -15.984375 15.90625 -17.421875 C 15.90625 -20.460938 14.160156 -21.984375 10.671875 -21.984375 L 5.9375 -21.984375 L 5.9375 -12.9375 Z M 10.671875 -12.9375 "/></g></g><g style="fill:#06db9a;fill-opacity:1;"><g transform="translate(666.694635, 225.929154)"><path style="stroke:none" d="M 19.1875 -17.421875 C 19.1875 -15.367188 18.484375 -13.664062 17.078125 -12.3125 C 15.679688 -10.957031 13.546875 -10.28125 10.671875 -10.28125 L 5.9375 -10.28125 L 5.9375 0 L 2.71875 0 L 2.71875 -24.640625 L 10.671875 -24.640625 C 13.453125 -24.640625 15.566406 -23.96875 17.015625 -22.625 C 18.460938 -21.28125 19.1875 -19.546875 19.1875 -17.421875 Z M 10.671875 -12.9375 C 12.460938 -12.9375 13.78125 -13.320312 14.625 -14.09375 C 15.476562 -14.875 15.90625 -15.984375 15.90625 -17.421875 C 15.90625 -20.460938 14.160156 -21.984375 10.671875 -21.984375 L 5.9375 -21.984375 L 5.9375 -12.9375 Z M 10.671875 -12.9375 "/></g></g><g style="fill:#06db9a;fill-opacity:1;"><g transform="translate(701.071738, 225.929154)"><path style="stroke:none" d="M 5.9375 -2.609375 L 14.5625 -2.609375 L 14.5625 0 L 2.71875 0 L 2.71875 -24.640625 L 5.9375 -24.640625 Z M 5.9375 -2.609375 "/></g></g><g style="fill:#06db9a;fill-opacity:1;"><g transform="translate(730.257567, 225.929154)"><path style="stroke:none" d="M 5.9375 -24.640625 L 5.9375 0 L 2.71875 0 L 2.71875 -24.640625 Z M 5.9375 -24.640625 "/></g></g><g style="fill:#06db9a;fill-opacity:1;"><g transform="translate(752.87485, 225.929154)"><path style="stroke:none" d="M 5.9375 -22.015625 L 5.9375 -13.78125 L 14.921875 -13.78125 L 14.921875 -11.140625 L 5.9375 -11.140625 L 5.9375 -2.65625 L 15.96875 -2.65625 L 15.96875 0 L 2.71875 0 L 2.71875 -24.671875 L 15.96875 -24.671875 L 15.96875 -22.015625 Z M 5.9375 -22.015625 "/></g></g><g style="fill:#06db9a;fill-opacity:1;"><g transform="translate(784.921189, 225.929154)"><path style="stroke:none" d="M 10.53125 0.25 C 8.90625 0.25 7.445312 -0.0351562 6.15625 -0.609375 C 4.875 -1.191406 3.867188 -1.992188 3.140625 -3.015625 C 2.410156 -4.046875 2.035156 -5.234375 2.015625 -6.578125 L 5.4375 -6.578125 C 5.5625 -5.421875 6.039062 -4.445312 6.875 -3.65625 C 7.707031 -2.863281 8.925781 -2.46875 10.53125 -2.46875 C 12.0625 -2.46875 13.269531 -2.847656 14.15625 -3.609375 C 15.039062 -4.378906 15.484375 -5.367188 15.484375 -6.578125 C 15.484375 -7.515625 15.222656 -8.273438 14.703125 -8.859375 C 14.179688 -9.453125 13.53125 -9.898438 12.75 -10.203125 C 11.976562 -10.515625 10.929688 -10.847656 9.609375 -11.203125 C 7.984375 -11.628906 6.679688 -12.050781 5.703125 -12.46875 C 4.722656 -12.894531 3.882812 -13.5625 3.1875 -14.46875 C 2.5 -15.375 2.15625 -16.59375 2.15625 -18.125 C 2.15625 -19.46875 2.492188 -20.65625 3.171875 -21.6875 C 3.859375 -22.726562 4.820312 -23.53125 6.0625 -24.09375 C 7.300781 -24.664062 8.722656 -24.953125 10.328125 -24.953125 C 12.628906 -24.953125 14.515625 -24.375 15.984375 -23.21875 C 17.460938 -22.0625 18.296875 -20.53125 18.484375 -18.625 L 14.953125 -18.625 C 14.835938 -19.570312 14.34375 -20.40625 13.46875 -21.125 C 12.59375 -21.84375 11.4375 -22.203125 10 -22.203125 C 8.65625 -22.203125 7.554688 -21.851562 6.703125 -21.15625 C 5.859375 -20.457031 5.4375 -19.484375 5.4375 -18.234375 C 5.4375 -17.335938 5.691406 -16.609375 6.203125 -16.046875 C 6.710938 -15.484375 7.335938 -15.050781 8.078125 -14.75 C 8.816406 -14.457031 9.859375 -14.125 11.203125 -13.75 C 12.828125 -13.300781 14.132812 -12.859375 15.125 -12.421875 C 16.113281 -11.984375 16.960938 -11.3125 17.671875 -10.40625 C 18.378906 -9.5 18.734375 -8.269531 18.734375 -6.71875 C 18.734375 -5.507812 18.414062 -4.375 17.78125 -3.3125 C 17.144531 -2.257812 16.203125 -1.398438 14.953125 -0.734375 C 13.703125 -0.078125 12.226562 0.25 10.53125 0.25 Z M 10.53125 0.25 "/></g></g></g></svg>